<svg xmlns="http://www.w3.org/2000/svg" width="206" height="105" viewBox="-0.658 -0.469 206 105" xml:space="preserve"><path fill="#B62175" d="M43.729 37.661c-7.73.183-13.832 6.814-13.646 14.825.191 8.007 6.599 14.348 14.327 14.174 7.709-.177 13.826-6.82 13.637-14.828-.189-8.014-6.605-14.351-14.318-14.171m.801 23.044c-3.471.142-6.44-3.535-6.625-8.196-.18-4.652 2.486-8.535 5.954-8.673 3.471-.139 6.434 3.529 6.629 8.187.179 4.652-2.482 8.543-5.958 8.682M24.497 41.42s-.083-.088-.112-.112a20 20 0 0 0-.981-.863 16 16 0 0 0-1.099-.742 19 19 0 0 0-1.175-.616 19 19 0 0 0-1.273-.513 21 21 0 0 0-1.373-.404 23 23 0 0 0-1.47-.283 15 15 0 0 0-1.099-.121c-1.025-.056-3.082-.059-4.106 0-.245.015-.734.067-.975.106a20 20 0 0 0-1.441.297 19 19 0 0 0-1.352.424c-.321.124-.952.397-1.258.551-.304.153-.89.472-1.173.657-.277.188-.813.595-1.066.81-.256.212-.978.913-.978.913s-.242.262-.318.354c-.203.233-.589.716-.769.969s-.507.787-.654 1.055c-.153.28-.43.854-.557 1.149-.133.298-.365.908-.462 1.22-.104.318-.28.978-.354 1.308a23 23 0 0 0-.253 1.385c-.05.365-.124 1.102-.147 1.47-.028.393-.052 1.17-.052 1.562a20 20 0 0 0 .018 1.043c.018.38.115 1.523.115 1.523s.139 1.069.206 1.423c.059.342.215 1.022.31 1.361.085.314.289.948.406 1.261.115.3.363.893.504 1.181.139.277.445.822.61 1.085.165.256.524.751.713.992.191.236.586.695.795.913.209.222.64.64.866.834.253.218.784.622 1.058.805.28.186.854.524 1.155.681.304.159.931.444 1.252.568.33.127 1.001.345 1.343.438.348.095 1.066.242 1.423.304.377.062 1.143.156 1.526.188.407.032 1.223.054 1.632.063.186.006.563.006.754 0 .395-.016 1.19-.086 1.585-.124a27 27 0 0 0 1.497-.229 21 21 0 0 0 1.417-.336c.339-.104.999-.336 1.326-.469.312-.13 1.229-.563 1.229-.563l1.158-.695.156-.089s.822-.595 1.081-.818c.253-.216.736-.681.96-.932.23-.25.645-.78.839-1.058.195-.276.551-.857.716-1.157.171-.31.477-.943.613-1.27.138-.333.468-1.373.468-1.373h-5.763s-.625.026-.831.067c-.324.059-.958.292-1.237.466-.265.159-.687.621-.914.827-.141.13-.424.41-.577.527-.165.121-.519.318-.692.416a4 4 0 0 1-.418.215c-.33.127-1.01.313-1.361.377-.386.071-1.164.124-1.556.139a7 7 0 0 1-.784-.015c-.374-.038-1.123-.165-1.482-.277a7 7 0 0 1-1.234-.551c-.271-.174-.751-.612-.987-.831a5 5 0 0 1-.309-.326 11 11 0 0 1-.646-.905 10 10 0 0 1-.483-1.11 12 12 0 0 1-.354-1.299 16 16 0 0 1-.218-1.485 33 33 0 0 1-.063-1.681c-.003-.209.006-.616.015-.822.023-.397.085-1.19.138-1.585.047-.351.18-1.055.271-1.394.083-.309.286-.913.41-1.208.121-.274.392-.802.554-1.046.165-.25.521-.734.743-.934.271-.245.893-.627 1.22-.784a8 8 0 0 1 1.337-.459c.374-.08 1.146-.139 1.535-.15.088-.003.268.006.359.012.386.03 1.161.121 1.535.212.339.083.999.315 1.305.477.289.153.804.554 1.055.766.083.083.244.25.318.345.23.292.822 1.231.822 1.231h8.06s-.15-.465-.206-.616a27 27 0 0 0-.53-1.291 20 20 0 0 0-.627-1.229 21 21 0 0 0-.754-1.131 35 35 0 0 0-.885-1.074m94.137 11.522c0-.187.003-.551 0-.731 0-.259-.012-.769-.023-1.022a29 29 0 0 0-.118-1.505 23 23 0 0 0-.197-1.417 20 20 0 0 0-.313-1.355 21 21 0 0 0-.415-1.255 15 15 0 0 0-.507-1.181c-.139-.28-.437-.834-.602-1.099a15 15 0 0 0-.707-1.019 17 17 0 0 0-.804-.937 1 1 0 0 0-.118-.112c-.235-.227-.73-.66-.989-.863a15 15 0 0 0-1.097-.742 17 17 0 0 0-1.169-.616 18 18 0 0 0-1.273-.513 20 20 0 0 0-1.369-.404 23 23 0 0 0-1.471-.283 26 26 0 0 0-1.564-.174 31 31 0 0 0-1.652-.062c-.356 0-1.081.027-1.443.053-.383.026-1.152.109-1.535.168-.365.056-1.09.203-1.446.297-.342.088-1.014.301-1.347.424-.321.124-.939.397-1.243.551-.3.153-.893.475-1.175.657-.28.188-.816.595-1.072.81-.259.212-.74.675-.975.913-.083.085-.25.262-.33.354-.194.233-.575.716-.754.969s-.516.781-.666 1.055c-.153.28-.421.854-.545 1.149-.127.298-.36.908-.463 1.22-.103.318-.28.978-.351 1.308a23 23 0 0 0-.252 1.385 31 31 0 0 0-.162 1.47 32 32 0 0 0-.044 1.561c0 .262.009.784.018 1.043.018.38.074 1.144.118 1.523.032.356.146 1.069.208 1.423.065.339.212 1.022.303 1.361.085.314.298.948.416 1.261.112.297.359.893.501 1.181.138.277.439.822.607 1.085.165.256.53.751.719.992.186.236.583.695.79.913.206.222.633.64.863.834.25.221.787.616 1.063.805.283.186.86.524 1.158.681.303.159.925.444 1.243.568.327.127 1.002.345 1.343.438.351.095 1.067.242 1.426.304.377.062 1.14.156 1.523.188.371.029 1.117.054 1.488.063.127.003.386 0 .516 0 .094 0 .285.006.383 0 .4-.016 1.196-.089 1.591-.124a26 26 0 0 0 1.497-.229 21 21 0 0 0 1.423-.336c.333-.104.989-.342 1.308-.469.315-.13.946-.406 1.246-.563.298-.159.854-.53 1.146-.695.038-.023.114-.065.15-.089.279-.186.827-.601 1.084-.818a13 13 0 0 0 .969-.932c.228-.25.651-.78.843-1.058.194-.276.554-.857.716-1.157.168-.31.46-.946.592-1.27.136-.336.48-1.373.48-1.373h-3.703s-1.173.07-1.559.142c-.383.067-1.143.273-1.511.409-.368.142-1.072.498-1.42.681-.469.25-1.367.813-1.827 1.072-.1.059-.297.174-.403.215a10 10 0 0 1-1.361.377c-.392.071-1.166.124-1.556.139a7 7 0 0 1-.78-.015c-.374-.038-1.125-.165-1.488-.28a7 7 0 0 1-1.237-.548c-.274-.171-.763-.601-.99-.831a7 7 0 0 1-.648-.789 9 9 0 0 1-.56-1.128 11 11 0 0 1-.354-1.332c-.068-.386-.162-1.562-.162-1.562h19.906s.101-.554.115-.742a6 6 0 0 0-.002-.412M98.612 49.38s.018-.51.044-.684c.05-.345.195-1.037.307-1.37.106-.306.392-.904.565-1.181.174-.265.589-.73.808-.96.032-.032.097-.083.126-.109.271-.209.846-.601 1.158-.749a7 7 0 0 1 1.332-.459c.471-.094 1.429-.153 1.9-.139a10 10 0 0 1 1.535.212c.336.088.99.315 1.303.477.285.15.801.557 1.043.766.079.074.235.23.3.318.186.241.501.769.628 1.042.147.31.359.955.438 1.285.098.383.242 1.55.242 1.55H98.612zm105.377-6.207a5.7 5.7 0 0 0-.872-1.703c-.412-.548-.928-1.002-1.481-1.399a9.6 9.6 0 0 0-1.947-1.108c-.808-.348-1.665-.586-2.531-.772a22 22 0 0 0-2.262-.368 32 32 0 0 0-2.596-.15c-1.108-.021-2.242-.021-3.35.095-.99.1-1.986.283-2.94.571a11 11 0 0 0-2.445 1.025 9.8 9.8 0 0 0-1.797 1.334c-.666.613-1.246 1.332-1.65 2.136-.406.792-.604 1.679-.804 2.569h7.701c.389-.459.769-.913 1.246-1.234.754-.5 1.747-.654 2.701-.71a15.6 15.6 0 0 1 2.546.068c.857.1 1.765.265 2.415.792.313.25.578.592.704.993.188.631 0 1.414-.438 1.883-.266.289-.631.465-1.008.622-1.122.451-2.274.657-3.446.819-1.447.209-2.929.354-4.366.63a19 19 0 0 0-3.624 1.046c-1.388.545-2.742 1.285-3.665 2.404-.804.993-1.258 2.289-1.481 3.598-.242 1.411-.215 2.846.186 4.18a8.3 8.3 0 0 0 3.138 4.267c.777.542 1.644.919 2.548 1.211.938.297 1.889.513 2.843.615 1.326.124 2.661.074 3.992-.026a35 35 0 0 0 2.396-.229c1.001-.124 2-.298 2.979-.575.881-.253 1.741-.58 2.542-1.03.97-.53 1.862-1.211 2.619-2.03a9.5 9.5 0 0 0 1.747-2.743c.427-1.052.654-2.186.742-3.322.038-.543.05-1.07.065-1.601v-9.524c-.08-.796-.165-1.577-.407-2.334m-7.088 11.54v.253l-.012.238-.009.254-.026.247-.026.18-.048.313-.053.238-.05.239-.077.241-.1.28-.074.188-.114.229-.109.212-.127.228-.142.197-.138.203-.15.203-.15.174-.177.2-.177.18-.174.159-.2.165-.118.104-.276.2-.21.139-.203.126-.221.124-.232.115-.228.088-.253.101-.212.076-.242.059-.238.065-.238.062-.251.041-.238.039-.254.023-.235.023-.301.023-.203.015h-.745l-.25-.015-.242-.023-.25-.023-.197-.023-.292-.054-.238-.05-.254-.076-.224-.086-.33-.153-.124-.064-.2-.136-.203-.165-.177-.162-.177-.188-.121-.177-.156-.238-.097-.227-.104-.228-.062-.241-.077-.298-.023-.188-.023-.241-.012-.248v-.256l.023-.254.023-.253.074-.289.053-.2.077-.241.1-.224.124-.23.142-.197.135-.162.219-.18.209-.139.215-.123.188-.092.266-.127.224-.097.227-.101.227-.088.228-.089.188-.076.276-.089.239-.062.238-.062.254-.063.238-.062.238-.056.242-.048.25-.047.301-.067.191-.035.235-.039.242-.05.25-.05.241-.051.313-.064.162-.05.241-.053.236-.06.191-.05.307-.08.224-.062.247-.062.242-.063.238-.073.266-.079.2-.06.238-.088.227-.077.239-.091.227-.085.238-.088.228-.089.224-.085zm-29.505 11.946c4.832-.932 8.594-5.601 8.481-10.523V37.685h-8.481zm8.482-31.467V26.7s-1.511.343-1.982.508c-.486.168-1.402.578-1.829.819-.428.232-1.223.787-1.585 1.084-.365.301-1.02.955-1.309 1.308s-.789 1.096-.983 1.485a10.3 10.3 0 0 0-.593 1.614c-.1.416-.2 1.673-.2 1.673h8.481zm-87.982 14.81-.015-.413-.015-.413-.03-.418-.029-.427-.029-.398-.044-.421-.071-.592-.044-.236-.074-.407-.068-.412-.106-.401-.115-.404-.074-.271-.186-.521-.139-.389-.183-.377-.186-.377-.2-.362-.188-.306-.277-.389-.262-.335-.274-.298-.306-.303-.459-.407-.174-.124-.33-.242-.351-.227-.377-.209-.362-.191-.375-.183-.536-.242-.229-.1-.383-.162-.38-.156-.395-.15-.392-.136-.395-.124-.598-.186-.207-.05-.4-.106-.407-.088-.409-.088-.407-.08-.354-.059-.465-.062-.416-.047-.416-.035-.418-.033-.548-.015h-.699l-.418.012-.421.029-.413.033-.389.029-.439.053-.404.062-.421.062-.409.083-.463.088-.348.083-.403.1-.401.118-.28.082-.504.177-.392.139-.395.15-.389.156-.374.165-.383.171-.293.148-.457.221-.365.2-.369.206-.354.227-.338.229-.33.248-.207.168-.415.395-.277.3-.269.327-.256.342-.307.477-.132.227-.198.365-.18.377-.162.389-.141.392-.13.392-.083.253-.126.557-.091.4-.074.41-.053.409-.042.416-.047.416-.036.416-.029.424-.021.404-.03.424-.015.421v16.687h8.229V48.511c.026-.31.056-.613.109-.914.071-.468.188-.913.371-1.334.265-.58.672-1.11 1.161-1.5.274-.203.572-.38.881-.536.439-.212.899-.38 1.379-.48.516-.101 1.037-.133 1.564-.159.519.026 1.046.059 1.558.159a5.9 5.9 0 0 1 2.26 1.016c.489.389.898.919 1.158 1.5.195.421.315.866.383 1.334.053.301.08.604.109.914V61.37s.053.781.097 1.034c.053.26.194.767.3 1.014.098.238.348.695.492.913.147.213.477.61.66.793s.589.521.807.666c.215.146.671.392.913.494a7 7 0 0 0 1.002.304c.253.053 1.025.101 1.025.101h2.808V50.002v16.687"/><path fill="#0091D0" d="M92.876 35.351c4.295-7.468 14.214-11.476 14.214-11.476 17.895-4.87 50.404 23.066 57.188 62.764-1.838 7.831-1.853 6.979-3.809 15.325 0 0-3.211-5.462-9.236-12.582-3.49-35.541-33.3-80.381-58.357-54.031"/><path fill="#0091D0" d="M151.234 14.813c6.025-7.121 9.233-12.585 9.233-12.585 1.959 8.352 1.974 7.498 3.812 15.329-6.784 39.696-39.294 67.634-57.188 62.764 0 0-9.919-4.007-14.214-11.475 25.056 26.348 54.866-18.493 58.357-54.033"/></svg>